<svg id="Capa_1" class="text-red-500" enable-background="new 0 0 512 512" height="512" viewBox="0 0 512 512" width="512" xmlns="http://www.w3.org/2000/svg"><g><g><g><path d="m218.934 474.042c-.117 0-.225 0-.342 0-120.346-.188-218.405-98.138-218.592-218.349-.091-58.113 22.526-112.785 63.686-153.945 41.142-41.143 95.803-63.79 153.941-63.79h.348c10.288.016 20.652.761 30.803 2.216 5.467.784 9.264 5.851 8.48 11.318-.783 5.468-5.851 9.263-11.317 8.48-9.224-1.322-18.644-2-27.996-2.014-.104 0-.212 0-.316 0-52.8 0-102.434 20.565-139.8 57.932-37.374 37.374-57.911 87.012-57.829 139.771.169 109.217 89.271 198.211 198.623 198.38h.311c58.114 0 113.032-25.365 150.719-69.624.125-.148.788-1.01 1.383-3.348 1.54-6.061.179-12.426-3.737-17.462-4.103-5.277-10.278-8.304-16.941-8.304h-30.875c-29.819 0-54.079-24.26-54.079-54.079 0-29.54 23.809-53.625 53.245-54.072 25.146-4.141 46.289-20.473 56.656-43.804 10.442-23.5 8.265-50.355-5.825-71.837-5.513-8.407-11.007-15.182-16.329-20.138-6.307-5.873-13.042-11.383-20.02-16.376-4.491-3.214-5.527-9.46-2.314-13.952 3.213-4.491 9.459-5.527 13.952-2.314 7.674 5.491 15.08 11.549 22.013 18.005 6.495 6.049 13.029 14.058 19.423 23.805 17.835 27.194 20.594 61.186 7.378 90.927-13.236 29.789-40.364 50.559-72.565 55.559-.508.079-1.021.118-1.534.118-18.791 0-34.079 15.288-34.079 34.079 0 18.792 15.288 34.079 34.079 34.079h30.875c12.88 0 24.81 5.841 32.73 16.026 7.732 9.944 10.405 22.58 7.332 34.668-1.174 4.616-3.036 8.445-5.537 11.383-41.496 48.732-101.969 76.659-165.95 76.662z"/></g><g><path d="m299.04 74.5c-8.811.048-13.345-10.881-7.07-17.07 3.709-3.884 10.43-3.851 14.14 0 6.27 6.18 1.733 17.121-7.07 17.07z"/></g><g><g><g><g><path d="m272.299 172.239c-10.181 0-20.404-3.58-28.603-10.86-8.595-7.629-13.712-18.141-14.407-29.596-.695-11.466 3.122-22.506 10.75-31.086 15.729-17.692 42.966-19.271 60.718-3.514 0 0 0 .001.001.001 8.594 7.631 13.71 18.142 14.403 29.597.695 11.468-3.123 22.507-10.751 31.084-8.464 9.52-20.258 14.374-32.111 14.374zm-.163-65.924c-6.336 0-12.634 2.59-17.151 7.671-4.068 4.576-6.105 10.467-5.733 16.586.371 6.131 3.114 11.76 7.722 15.85 9.505 8.44 24.08 7.611 32.489-1.847 4.069-4.575 6.104-10.464 5.734-16.585-.372-6.131-3.113-11.761-7.72-15.851-4.399-3.903-9.884-5.824-15.341-5.824z"/></g></g><g><g><path d="m166.604 170.838c-22.58 0-41.623-17.671-43.008-40.475-.695-11.46 3.117-22.494 10.736-31.069 7.626-8.584 18.149-13.676 29.629-14.336h.001c23.661-1.369 44.072 16.764 45.507 40.402.694 11.463-3.119 22.497-10.738 31.073-7.625 8.583-18.148 13.674-29.628 14.335-.837.047-1.672.07-2.499.07zm-1.493-65.914c-6.136.353-11.757 3.071-15.827 7.653-4.063 4.573-6.095 10.459-5.725 16.574.77 12.667 11.72 22.374 24.393 21.648 6.136-.354 11.757-3.071 15.827-7.651 4.063-4.573 6.097-10.461 5.726-16.579-.768-12.663-11.704-22.372-24.394-21.645z"/></g></g><g><g><path d="m91.087 244.457c-10.18 0-20.404-3.578-28.604-10.855-8.598-7.632-13.714-18.144-14.408-29.6-.695-11.467 3.124-22.507 10.752-31.085 15.729-17.692 42.967-19.269 60.715-3.515 8.596 7.632 13.711 18.144 14.405 29.599.695 11.467-3.122 22.506-10.749 31.083-8.461 9.519-20.256 14.373-32.111 14.373zm-.16-65.922c-6.336 0-12.634 2.59-17.153 7.672v.001c-4.069 4.575-6.105 10.465-5.735 16.585.371 6.132 3.113 11.761 7.721 15.851 9.507 8.437 24.084 7.609 32.493-1.848 4.067-4.575 6.103-10.464 5.732-16.585-.371-6.132-3.113-11.762-7.719-15.851-4.399-3.905-9.883-5.825-15.339-5.825zm-24.626 1.027h.01z"/></g></g><g><g><path d="m89.969 350.042c-22.58 0-41.622-17.669-43.003-40.474v-.001c-.693-11.461 3.121-22.497 10.74-31.072 7.625-8.582 18.146-13.673 29.624-14.334 23.663-1.373 44.076 16.765 45.508 40.405.693 11.462-3.121 22.497-10.739 31.072-7.625 8.581-18.146 13.671-29.625 14.332-.839.048-1.674.072-2.505.072zm-23.04-41.683c.767 12.666 11.704 22.364 24.394 21.644 6.136-.353 11.755-3.07 15.824-7.649 4.063-4.573 6.097-10.461 5.727-16.58-.767-12.665-11.712-22.385-24.395-21.647-6.133.354-11.753 3.071-15.822 7.651-4.064 4.574-6.098 10.463-5.728 16.582z"/></g></g><g><path d="m163.928 425.676c-10.181 0-20.404-3.579-28.604-10.858-8.595-7.631-13.71-18.142-14.405-29.596-.695-11.466 3.122-22.505 10.748-31.084 15.732-17.691 42.969-19.266 60.716-3.515 8.595 7.632 13.71 18.143 14.404 29.598.695 11.467-3.122 22.506-10.748 31.083-8.463 9.517-20.258 14.372-32.111 14.372zm-15.325-25.815c9.506 8.439 24.081 7.61 32.491-1.848 4.067-4.574 6.102-10.463 5.731-16.583-.372-6.132-3.113-11.762-7.719-15.852-9.506-8.437-24.082-7.608-32.492 1.848-4.066 4.574-6.102 10.464-5.731 16.584.371 6.132 3.113 11.761 7.72 15.851z"/></g></g></g></g><g><g><path d="m508.948 352.013c-3.129-8.64-8.588-16.034-15.543-21.607 2.609-14.877 4.457-31.67 5.495-49.974.61-10.764.925-43.25.925-54.743 0-36.496-3.166-74.953-8.686-105.509-7.277-40.279-16.378-57.465-30.429-57.465s-23.151 17.186-30.429 57.465c-5.521 30.556-8.687 69.013-8.687 105.509 0 11.487.316 43.968.926 54.742 1.022 18.023 2.916 35.221 5.496 49.973-6.957 5.573-12.416 12.968-15.544 21.609-2.025 5.592-3.052 11.465-3.052 17.456 0 3.19.219 6.405.648 9.536 4.758 35.243 34.221 59.58 43.14 66.2 1.205.895 1.888 1.354 1.888 1.354 1.694 1.141 3.659 1.714 5.623 1.714 1.906 0 3.814-.54 5.472-1.628 1.87-1.226 45.81-30.566 45.81-77.177-.001-5.989-1.028-11.862-3.053-17.455zm-66.459-72.713c-.581-10.241-.895-42.627-.895-53.61 0-32.109 2.608-66.683 7.156-94.855 4.459-27.626 9.191-39.949 11.959-45.19 2.768 5.241 7.5 17.564 11.959 45.19 4.548 28.173 7.156 62.747 7.156 94.855 0 10.988-.313 43.38-.894 53.61-.842 14.85-2.292 29.057-4.237 41.636-4.311-1.16-8.824-1.775-13.443-1.775h-1.084c-4.618 0-9.132.615-13.442 1.775-1.944-12.585-3.393-26.792-4.235-41.636zm18.285 146.384c-9.244-7.791-27.737-26.025-30.89-49.373-.309-2.253-.465-4.555-.465-6.841 0-3.662.625-7.245 1.857-10.647 4.258-11.761 15.868-19.662 28.892-19.662h1.084c13.022 0 24.633 7.901 28.892 19.662 1.231 3.403 1.856 6.985 1.856 10.648 0 27.072-20.949 47.715-31.226 56.213z"/></g></g></g></svg>