<svg width="543" height="501" viewBox="0 0 543 501" fill="none" xmlns="http://www.w3.org/2000/svg">
<rect width="189" height="133.072" rx="20" transform="matrix(-1 0 0 1 189 39.928)" fill="#F2F6FB"/>
<ellipse rx="16.0296" ry="16.0283" transform="matrix(-1 0 0 1 141.284 76.4575)" fill="#D8DEED"/>
<ellipse rx="16.0296" ry="16.0283" transform="matrix(-1 0 0 1 94.3137 76.4575)" fill="#D8DEED"/>
<ellipse rx="16.0296" ry="16.0283" transform="matrix(-1 0 0 1 47.343 76.4575)" fill="#D8DEED"/>
<ellipse rx="16.0296" ry="16.2147" transform="matrix(-1 0 0 1 141.284 130.693)" fill="#D8DEED"/>
<ellipse rx="16.0296" ry="16.2147" transform="matrix(-1 0 0 1 94.3137 130.693)" fill="#D8DEED"/>
<ellipse rx="16.216" ry="16.2147" transform="matrix(-1 0 0 1 47.5296 130.693)" fill="#D8DEED"/>
<path fill-rule="evenodd" clip-rule="evenodd" d="M141.284 76.4574C139.019 76.4574 137.184 74.7051 137.184 72.5435C137.184 70.3819 139.019 68.6296 141.284 68.6296C143.549 68.6296 145.385 70.3819 145.385 72.5435C145.385 74.7051 143.549 76.4574 141.284 76.4574ZM148.74 85.4034C148.74 81.492 145.402 78.3212 141.284 78.3212C137.166 78.3212 133.829 81.492 133.829 85.4034H148.74Z" fill="#F2F6FB"/>
<path fill-rule="evenodd" clip-rule="evenodd" d="M94.3134 76.4576C92.0487 76.4576 90.2128 74.7053 90.2128 72.5438C90.2128 70.3822 92.0487 68.6299 94.3134 68.6299C96.5781 68.6299 98.414 70.3822 98.414 72.5438C98.414 74.7053 96.5781 76.4576 94.3134 76.4576ZM101.769 85.4037C101.769 81.4922 98.5145 78.3214 94.4998 78.3214C90.4851 78.3214 87.2306 81.4922 87.2306 85.4037H101.769Z" fill="#F2F6FB"/>
<path fill-rule="evenodd" clip-rule="evenodd" d="M47.3432 76.4576C45.0785 76.4576 43.2426 74.7053 43.2426 72.5438C43.2426 70.3822 45.0785 68.6299 47.3432 68.6299C49.6079 68.6299 51.4438 70.3822 51.4438 72.5438C51.4438 74.7053 49.6079 76.4576 47.3432 76.4576ZM54.7988 85.4037C54.7988 81.4922 51.5443 78.3214 47.5296 78.3214C43.5149 78.3214 40.2604 81.4922 40.2604 85.4037H54.7988Z" fill="#F2F6FB"/>
<path fill-rule="evenodd" clip-rule="evenodd" d="M141.284 130.506C139.019 130.506 137.184 128.671 137.184 126.406C137.184 124.142 139.019 122.306 141.284 122.306C143.549 122.306 145.385 124.142 145.385 126.406C145.385 128.671 143.549 130.506 141.284 130.506ZM148.74 139.452C148.74 135.335 145.402 131.997 141.284 131.997C137.166 131.997 133.829 135.335 133.829 139.452H148.74Z" fill="#F2F6FB"/>
<path fill-rule="evenodd" clip-rule="evenodd" d="M94.3134 130.506C92.0487 130.506 90.2128 128.671 90.2128 126.406C90.2128 124.142 92.0487 122.306 94.3134 122.306C96.5781 122.306 98.414 124.142 98.414 126.406C98.414 128.671 96.5781 130.506 94.3134 130.506ZM101.769 139.452C101.769 135.335 98.5145 131.997 94.4998 131.997C90.4851 131.997 87.2306 135.335 87.2306 139.452H101.769Z" fill="#F2F6FB"/>
<path fill-rule="evenodd" clip-rule="evenodd" d="M47.3432 130.506C45.0785 130.506 43.2426 128.671 43.2426 126.406C43.2426 124.142 45.0785 122.306 47.3432 122.306C49.6079 122.306 51.4438 124.142 51.4438 126.406C51.4438 128.671 49.6079 130.506 47.3432 130.506ZM54.7988 139.452C54.7988 135.335 51.5443 131.997 47.5296 131.997C43.5149 131.997 40.2604 135.335 40.2604 139.452H54.7988Z" fill="#F2F6FB"/>
<rect width="32.0592" height="6.70951" rx="3.35476" transform="matrix(-1 0 0 1 157.313 96.5862)" fill="#E1E5F0"/>
<rect width="32.0592" height="6.70951" rx="3.35476" transform="matrix(-1 0 0 1 110.343 96.5862)" fill="#E1E5F0"/>
<rect width="32.432" height="6.70951" rx="3.35476" transform="matrix(-1 0 0 1 63.7456 96.5862)" fill="#E1E5F0"/>
<rect width="32.0592" height="6.70951" rx="3.35476" transform="matrix(-1 0 0 1 157.313 150.635)" fill="#E1E5F0"/>
<rect width="32.0592" height="6.70951" rx="3.35476" transform="matrix(-1 0 0 1 110.343 150.635)" fill="#E1E5F0"/>
<rect width="32.432" height="6.70951" rx="3.35476" transform="matrix(-1 0 0 1 63.7456 150.635)" fill="#E1E5F0"/>
<path d="M189 44.401C189 35.343 181.657 28 172.599 28H16.401C7.34299 28 0 35.343 0 44.401V44.401H189V44.401Z" fill="#E1E5F0"/>
<path d="M191 20C191 8.95431 199.954 0 211 0H378C391.807 0 403 11.1929 403 25V165C403 178.807 391.807 190 378 190H216C202.193 190 191 178.807 191 165V20Z" fill="#E1E5F0"/>
<ellipse cx="297.244" cy="72.532" rx="43.7189" ry="43.7147" fill="#D8DEED"/>
<path fill-rule="evenodd" clip-rule="evenodd" d="M275.315 54.4798C275.214 54.4321 275.116 54.3861 275.018 54.3423C275.096 54.2341 275.173 54.1305 275.249 54.0288C275.427 53.7907 275.598 53.5628 275.743 53.3096C279.726 47.7844 288.054 47.0615 291.882 47.4746C291.936 47.4806 292.006 47.4886 292.091 47.4984L292.091 47.4984C292.741 47.5734 294.279 47.7507 296.383 47.8877C297.135 47.9477 297.799 47.9729 298.346 47.9935C298.739 48.0084 299.072 48.021 299.332 48.0426C301.641 48.1354 303.532 48.117 305.153 48.1012C308.943 48.0643 311.254 48.0418 313.971 49.4884C314.695 49.8499 316.351 50.7794 317.799 52.5867C321.799 57.5896 320.943 64.0268 320.662 66.1386L320.644 66.2705C319.854 71.2649 317.277 74.6238 315.882 76.4419L315.882 76.442C315.633 76.7667 315.421 77.0423 315.264 77.2693C314.065 79.0359 312.065 81.1845 310.596 82.6781L311.166 99.3481C311.166 99.7174 311.007 100.087 310.689 100.245C309.312 101.089 307.352 102.039 304.916 102.567C300.519 103.569 296.759 102.831 294.64 102.198C294.216 102.092 293.898 101.67 293.898 101.248L293.7 92.2742C291.938 92.9243 291.652 93.0047 291.483 93.052C291.44 93.0642 291.404 93.0742 291.353 93.0911C288.099 93.9162 285.31 93.8131 284.793 93.71C282.934 93.5552 280.971 92.0082 279.215 89.3781C276.839 85.8714 274.721 80.4051 273.585 73.8557C273.378 72.9275 273.327 71.9993 273.275 71.071L273.068 61.8401C273.017 59.7773 273.482 57.7145 274.515 55.858C274.773 55.3424 275.031 54.8872 275.315 54.4798Z" fill="#F3F5F8"/>
<path fill-rule="evenodd" clip-rule="evenodd" d="M275.86 54.7521C275.568 54.6058 275.288 54.4652 275.018 54.3425C275.116 54.204 275.214 54.073 275.306 53.9494L275.306 53.9493L275.306 53.9493L275.306 53.9493L275.306 53.9493C275.458 53.7456 275.595 53.5621 275.692 53.399C279.73 47.7905 288.222 47.0567 292.105 47.476C292.198 47.4854 292.326 47.4997 292.488 47.5178C293.238 47.6014 294.713 47.7661 296.714 47.8954C297.491 47.9559 298.164 47.9814 298.714 48.0023C299.117 48.0176 299.454 48.0304 299.717 48.0526C302.075 48.1468 304.006 48.1281 305.659 48.1121C309.523 48.0746 311.873 48.0519 314.629 49.5202C315.354 49.8871 317.063 50.8306 318.512 52.6652C323.017 58.2212 321.93 64.9828 321.412 66.5553C321.05 67.656 320.376 68.3898 320.376 68.3898C317.642 68.2677 315.111 68.351 312.624 68.4803C312.568 67.154 312.168 65.8213 311.322 64.6487C309.623 62.2734 306.438 60.9538 303.891 61.7983C302.57 62.2361 301.655 63.2118 301.436 63.4449C301.418 63.4647 301.404 63.4791 301.396 63.4874C299.962 65.2821 299.644 67.1824 299.644 67.1824L299.587 67.7452C298.657 66.7676 297.67 65.731 296.658 64.6687L296.653 64.6632L296.651 64.6614L296.65 64.6606L296.649 64.6599C293.702 61.5656 290.548 58.2544 288.015 55.548C285.944 56.1246 282.526 56.7011 278.643 55.8625C277.609 55.6299 276.688 55.1678 275.86 54.7521ZM274.577 68.1051C274.031 67.9911 273.868 67.2497 274.25 66.8505C274.741 66.3943 275.614 65.9381 276.705 65.9381C278.942 65.9381 281.343 67.4778 278.833 68.1622C277.36 68.5614 275.614 68.3333 274.577 68.1051ZM285.034 67.3298C284.604 67.725 284.765 68.4589 285.302 68.5718C286.322 68.7976 288.04 69.0799 289.597 68.6283C292.066 68.0073 289.704 66.4265 287.503 66.4265C286.376 66.4265 285.517 66.8782 285.034 67.3298Z" fill="#E1E5F0"/>
<path d="M278.438 71.6704C278.438 71.0345 278.082 70.4517 277.548 70.3457C277.192 70.2927 276.881 70.3987 276.659 71.0875C276.08 72.7301 277.059 75.3794 277.815 74.5846C278.26 74.0547 278.393 72.5711 278.438 71.6704Z" fill="#E1E5F0"/>
<path d="M287.701 71.5056C287.657 70.8665 287.218 70.334 286.691 70.334C286.34 70.334 286.033 70.4938 285.858 71.1861C285.419 72.8903 286.647 75.4466 287.306 74.5412C287.744 73.9021 287.744 72.411 287.701 71.5056Z" fill="#E1E5F0"/>
<path d="M283.826 82.208C284.196 82.0967 285.094 81.8183 285.253 81.2059C285.253 81.0946 285.306 80.9275 285.253 80.8162C285.042 80.4265 284.407 80.6492 283.456 80.7049C281.765 80.8162 280.392 80.6492 280.392 80.6492C280.392 80.6492 280.761 81.7626 281.026 82.0967C281.554 82.9318 283.245 82.3751 283.826 82.208Z" fill="#E1E5F0"/>
<path d="M279.426 77.3132C279.334 77.8757 279.766 78.4319 280.333 78.528C280.458 78.5398 280.458 78.5398 280.539 78.5462C281.39 78.6127 281.922 78.6374 282.834 78.6374C283.104 78.6374 283.323 78.4188 283.323 78.149C283.323 77.8793 283.104 77.6606 282.834 77.6606C281.95 77.6606 281.442 77.637 280.615 77.5723L280.452 77.5595C280.442 77.5559 280.388 77.4854 280.392 77.4589L281.15 71.9605L281.155 71.8938V68.8688C281.155 68.599 280.936 68.3804 280.666 68.3804C280.396 68.3804 280.178 68.599 280.178 68.8688V71.8603L279.426 77.3132Z" fill="#E1E5F0"/>
<path d="M312.543 67.483C312.793 68.9947 312.505 70.6405 311.78 71.9654C310.897 73.6397 309.649 74.5555 308.039 75.2594C307.792 75.3675 307.68 75.6555 307.788 75.9026C307.896 76.1498 308.184 76.2625 308.431 76.1544C309.13 75.8485 309.685 75.5536 310.327 75.082C311.275 74.3867 312.068 73.5135 312.641 72.4278C313.466 70.9191 313.792 69.0525 313.507 67.3241C313.463 67.0579 313.212 66.8777 312.946 66.9216C312.68 66.9655 312.499 67.2169 312.543 67.483Z" fill="#E1E5F0"/>
<rect x="232.521" y="136.761" width="76.6912" height="7.81491" rx="3.90745" fill="#D8DEED"/>
<rect x="232.521" y="157.764" width="129.935" height="7.32648" rx="3.66324" fill="#F2F6FB"/>
<rect x="316.05" y="136.761" width="46.4055" height="7.81491" rx="3.90745" fill="#D8DEED"/>
<path d="M297.821 202.649L330.179 182C330.611 182.298 330.611 182.298 331 182.639L318.903 218.7C318.903 218.7 314.151 218.061 310.479 216.018L304.992 223C304.992 223 301.737 221.207 300.393 220.184C299.049 219.16 297 216.912 297 216.912L302.487 209.887C300.931 207.46 299.376 205.033 297.821 202.649Z" fill="#D8DEED"/>
<rect width="180" height="161" rx="20" transform="matrix(-1 0 0 1 543 72)" fill="#F2F6FB"/>
<path d="M543 89.7969C543 79.968 535.032 72 525.203 72H380.797C370.968 72 363 79.968 363 89.7969V89.7969H543V89.7969Z" fill="#E1E5F0"/>
<ellipse rx="4.14747" ry="4.13882" transform="matrix(-1 0 0 1 531.802 81.5192)" fill="#FF5645"/>
<ellipse rx="4.35484" ry="4.13882" transform="matrix(-1 0 0 1 518.737 81.5192)" fill="#FFCB3D"/>
<ellipse rx="4.14747" ry="4.13882" transform="matrix(-1 0 0 1 505.673 81.5192)" fill="#3ABF7C"/>
<path fill-rule="evenodd" clip-rule="evenodd" d="M507.747 194.302C507.747 192.588 506.357 191.198 504.642 191.198H452.585H445.735C444.766 191.198 443.901 191.642 443.331 192.338C441.068 192.908 438.887 193.681 436.807 194.637C436.819 194.527 436.825 194.415 436.825 194.302C436.825 192.588 435.435 191.198 433.721 191.198H400.943C399.229 191.198 397.839 192.588 397.839 194.302C397.839 196.016 399.229 197.406 400.943 197.406H431.82C421.592 204.144 414.843 215.716 414.843 228.861C414.843 249.662 431.741 266.524 452.585 266.524C473.43 266.524 490.327 249.662 490.327 228.861C490.327 215.716 483.579 204.144 473.351 197.406H504.642C506.357 197.406 507.747 196.016 507.747 194.302Z" fill="#474BFF"/>
<rect width="109.908" height="6.62211" rx="3.31105" transform="matrix(-1 0 0 1 507.747 208.581)" fill="#E1E5F0"/>
<path d="M440.075 151.196C438.838 151.883 436.454 153.3 433.75 155.275C430.45 157.765 433.108 162.703 437.188 161.673L442.917 160.213C444.567 159.784 445.713 158.452 445.805 156.864L445.942 154.502C446.08 152.398 444.292 150.637 442.046 150.637V150.637C441.359 150.68 440.671 150.852 440.075 151.196Z" fill="#D8DEED"/>
<path fill-rule="evenodd" clip-rule="evenodd" d="M447.633 145.58C447.588 145.535 447.588 145.49 447.588 145.49C447.498 145.084 447.093 144.724 446.689 144.679C445.88 144.454 444.667 144.003 443.634 142.966C442.197 141.479 441.343 139.091 442.062 136.747C442.736 134.494 444.892 132.646 447.048 132.691C448.261 132.736 449.25 133.322 449.385 133.412C449.385 133.457 449.43 133.457 449.43 133.457C450.328 134.088 451.541 133.412 451.496 132.331L451.047 120.793C451.047 120.072 451.586 119.441 452.305 119.396C453.608 119.351 454.866 119.171 456.168 118.855C457.561 118.675 458.549 118.54 458.864 118.495C461.065 118.179 465.019 118.315 468.523 119.757C470.005 120.478 471.443 121.514 472.656 122.957C472.971 123.317 473.285 123.723 473.599 124.218C473.689 124.354 473.779 124.489 473.869 124.669C474.768 126.201 475.262 127.959 475.262 129.762L475.396 137.829C475.385 138.031 475.377 138.234 475.368 138.437C475.343 139.045 475.318 139.654 475.217 140.262C473.869 150.312 469.871 157.478 466.142 157.974C465.693 158.064 463.267 158.289 460.391 157.658C460.326 157.636 460.29 157.625 460.217 157.603C459.99 157.532 459.409 157.352 456.483 156.396C456.303 156.338 456.128 156.281 455.957 156.225L454.884 165.369C453.092 167.616 441.802 162.636 441.802 162.636L443.101 151.223L443.056 148.139L443.46 145.671L447.245 146.326L447.633 145.58Z" fill="#F2F6FB"/>
<path fill-rule="evenodd" clip-rule="evenodd" d="M446.228 151.251C445.441 152.797 444.213 154.303 442.307 155.394L440.143 156.018L440.836 154.938L438.652 156.432C438.652 156.432 439.2 154.542 434.636 148.784C431.051 144.262 432.394 136.241 433.135 133.008C432.965 130.451 433.207 126.713 435.656 123.562C436.874 121.992 438.317 121.14 438.949 120.781C441.335 119.47 443.35 119.441 446.667 119.393C448.115 119.373 449.812 119.348 451.895 119.212C452.076 119.197 452.296 119.177 452.554 119.154L452.554 119.154C453.068 119.107 453.73 119.047 454.512 118.988C455.008 118.943 455.414 118.898 455.82 118.853C457.218 118.674 458.211 118.539 458.527 118.494C460.737 118.18 464.822 118.245 468.341 119.68C469.83 120.398 471.256 121.285 472.474 122.72C472.79 123.079 473.284 123.725 473.6 124.219C472.788 124.622 471.564 125.176 470.481 125.445C467.098 126.252 464.12 125.849 462.316 125.4C459.113 128.898 455.955 132.351 452.798 135.849C451.394 137.922 449.347 141.67 447.605 144.911C447.63 145.959 447.544 148.555 446.313 151.08L446.364 151.158L446.228 151.251Z" fill="#D8DEED"/>
<path d="M454.245 140.637L452.02 135.595C452.02 135.595 451.308 134.168 449.751 133.141C449.618 133.052 448.639 132.472 447.438 132.428C445.303 132.383 443.167 134.212 442.5 136.443C441.744 138.763 442.589 141.128 444.013 142.555C445.436 143.983 447.26 144.295 447.839 144.429L450.152 144.206" fill="#F2F6FB"/>
<path fill-rule="evenodd" clip-rule="evenodd" d="M472.927 138.638C472.363 138.595 471.886 138.984 471.799 139.546C471.732 139.95 471.664 140.483 471.664 140.981C471.187 140.553 470.644 140.202 470.053 139.946L470.045 139.842C470.025 139.614 469.824 139.445 469.596 139.464C469.455 139.476 469.337 139.557 469.272 139.67C468.778 139.535 468.259 139.463 467.723 139.463C464.716 139.463 462.229 141.74 461.781 144.71L460.05 144.566C460.011 141.281 457.238 138.635 453.829 138.635C451.268 138.635 449.065 140.129 448.112 142.266L445.22 141.545C444.998 141.489 444.773 141.624 444.717 141.846C444.662 142.067 444.797 142.292 445.019 142.348L447.828 143.048C447.685 143.554 447.608 144.086 447.608 144.636C447.608 147.954 450.397 150.638 453.829 150.638C456.997 150.638 459.616 148.352 460.002 145.392L461.711 145.535C461.71 145.58 461.71 145.625 461.71 145.671C461.71 149.096 464.399 151.879 467.723 151.879C471.048 151.879 473.737 149.096 473.737 145.671C473.737 144.372 473.35 143.165 472.689 142.167C473.279 141.699 473.879 140.47 473.708 139.502C473.577 138.898 473.274 138.638 472.927 138.638ZM472.908 145.671C472.908 143.602 471.783 141.808 470.135 140.907L470.418 144.22C470.419 144.734 470.053 145.224 469.568 145.237C469.257 145.262 469.067 145.262 468.339 145.247C468.009 145.241 467.783 145.238 467.516 145.238C467.287 145.238 467.101 145.052 467.101 144.824C467.101 144.595 467.287 144.41 467.516 144.41C467.79 144.41 468.021 144.413 468.356 144.42C469.063 144.434 469.235 144.434 469.515 144.411C469.527 144.41 469.59 144.326 469.59 144.255L469.271 140.535C468.782 140.376 468.262 140.291 467.723 140.291C464.864 140.291 462.539 142.696 462.539 145.671C462.539 148.646 464.864 151.051 467.723 151.051C470.583 151.051 472.908 148.646 472.908 145.671ZM453.829 139.463C451.574 139.463 449.646 140.79 448.84 142.672C448.856 142.737 448.857 142.806 448.84 142.874C448.815 142.975 448.755 143.058 448.675 143.113C448.521 143.595 448.438 144.106 448.438 144.636C448.438 147.49 450.848 149.81 453.829 149.81C456.811 149.81 459.221 147.49 459.221 144.636C459.221 141.782 456.811 139.463 453.829 139.463ZM465.46 146.878C465.539 147.331 466.211 147.647 466.488 147.738C466.497 147.742 466.506 147.746 466.516 147.75C466.975 147.941 468.196 148.451 468.622 147.919C468.819 147.693 469.175 146.923 469.175 146.923C469.175 146.923 468.108 146.923 466.843 146.697C466.693 146.668 466.552 146.637 466.421 146.609C465.931 146.503 465.585 146.427 465.46 146.606C465.434 146.636 465.442 146.707 465.451 146.777C465.456 146.812 465.46 146.848 465.46 146.878Z" fill="#D8DEED"/>
<path d="M463.09 138.718C463.177 138.156 463.654 137.767 464.218 137.81C464.564 137.81 464.868 138.07 464.998 138.675C465.258 140.144 463.74 142.218 463.177 141.31C462.83 140.748 462.96 139.495 463.09 138.718Z" fill="#D8DEED"/>
<path fill-rule="evenodd" clip-rule="evenodd" d="M141.7 381.869C133.422 381.86 126.716 375.147 126.716 366.869V346.063V281.053V262.852C126.716 254.568 133.432 247.852 141.716 247.852H206.303C214.588 247.852 221.303 254.568 221.303 262.852V366.937C221.303 375.227 214.578 381.945 206.287 381.937L141.7 381.869ZM164.756 389.147H128.87C127.597 389.147 126.569 390.126 126.569 391.3V391.545C126.569 392.72 127.597 393.698 128.772 393.698H167.499L154.475 417.582C145.173 434.614 135.92 451.597 126.667 468.628L111.343 496.721C110.804 497.7 111.245 498.972 112.273 499.559L112.469 499.657C113.497 500.245 114.819 499.902 115.308 498.972L172.639 393.698L210.826 393.698L268.156 498.972C268.646 499.902 269.968 500.196 270.996 499.657L271.192 499.559C272.22 498.972 272.661 497.7 272.122 496.721L256.798 468.628C247.496 451.597 238.243 434.614 228.99 417.582L215.966 393.698H263.212C264.436 393.698 265.415 392.72 265.415 391.545V391.3C265.415 390.126 264.387 389.147 263.212 389.147H229.92H164.756Z" fill="#D8DEED"/>
<path fill-rule="evenodd" clip-rule="evenodd" d="M222.21 495.595H179.636C178.412 495.595 177.433 496.574 177.433 497.797C177.433 499.021 178.461 500 179.636 500H228.456C228.612 500.034 228.774 500.052 228.94 500.052H256.112C256.275 500.052 256.435 500.034 256.589 500H257.431C258.654 500 259.634 499.021 259.634 497.797C259.634 496.574 258.654 495.595 257.431 495.595H256.554C256.411 495.565 256.263 495.55 256.112 495.55H229.639L181.01 459.333C180.031 458.599 178.611 458.794 177.877 459.773C177.143 460.752 177.338 462.171 178.318 462.906L222.21 495.595Z" fill="#FFCB3D"/>
<path fill-rule="evenodd" clip-rule="evenodd" d="M256.259 493.98C256.015 493.099 255.623 492.267 255.182 491.533C253.762 489.282 251.217 487.716 251.217 487.716C248.279 485.807 245.586 484.534 242.404 483.164C240.74 482.43 238.39 481.451 235.648 480.374C234.767 477.536 233.885 474.697 233.004 471.809C232.619 470.529 232.233 469.251 231.849 467.976L231.848 467.973C230.571 463.739 229.301 459.528 228.059 455.316L198.586 433.928L180.768 459.175C180.851 459.222 180.932 459.274 181.01 459.333L229.639 495.55H256.112C256.194 495.55 256.274 495.554 256.353 495.563C256.38 495.406 256.399 495.252 256.406 495.106C256.389 494.985 256.378 494.858 256.366 494.728V494.727C256.345 494.487 256.323 494.234 256.259 493.98ZM341.197 456.931C341.197 456.931 348.399 465.381 348.693 465.528C354.274 471.499 359.61 474.827 363.478 476.785C365.28 477.701 369.632 479.596 373.79 481.408L373.79 481.408C376.522 482.598 379.17 483.752 380.956 484.567C383.257 485.594 385.46 486.818 387.615 488.139C387.645 488.16 387.674 488.178 387.701 488.196C387.804 488.262 387.89 488.317 388.006 488.433C389.132 489.461 390.846 491.321 391.482 493.523C391.549 493.723 391.57 493.9 391.592 494.086L391.592 494.086C391.603 494.173 391.614 494.261 391.629 494.355C391.662 494.518 391.651 494.681 391.64 494.844C391.635 494.926 391.629 495.008 391.629 495.089V495.138C391.384 496.313 390.356 497.145 389.181 497.145L314.373 497.34C313.002 497.34 311.876 496.264 311.876 494.893V467.209C311.876 467.16 341.197 456.931 341.197 456.931Z" fill="#474961"/>
<path fill-rule="evenodd" clip-rule="evenodd" d="M155.578 321.247L269.952 321.831C272.813 321.38 275.926 321.346 279.252 322.045C282.539 322.748 285.432 324.036 287.936 325.602C292.946 324.922 298.097 325.957 302.49 328.854L312.726 335.642C323.029 342.517 325.135 357.046 317.47 367.737C317.449 367.781 317.422 367.809 317.395 367.837C317.368 367.864 317.341 367.892 317.319 367.936C316.633 368.888 315.934 369.848 315.222 370.816L346.846 438.113C350.604 446.11 346.67 455.607 338.358 458.603L316.314 466.55C309.08 469.158 301.047 465.885 297.654 458.984C292.401 448.3 284.405 432.248 276.789 417.81C272.937 422.251 269.173 426.558 265.598 430.646C254.954 442.822 245.996 453.069 241.443 459.217C240.99 459.812 239.886 461.071 238.034 461.856C233.493 463.926 229.048 460.884 219.8 454.555C217.647 453.082 215.234 451.43 212.499 449.624C210.44 448.274 208.569 447.08 206.881 446.003C198.463 440.63 194.587 438.157 194.564 433.747C194.558 430.858 196.156 428.588 196.89 427.64C207.268 414.08 217.923 400.582 228.592 387.379C210.349 387.918 188.458 388.016 175.423 386.147C149.997 382.5 155.578 321.247 155.578 321.247Z" fill="#A339FF"/>
<path opacity="0.176986" fill-rule="evenodd" clip-rule="evenodd" d="M287.896 325.834C292.925 325.137 298.1 326.169 302.51 329.078L312.747 335.866C323.049 342.74 325.156 357.27 317.491 367.961C317.47 368.005 317.442 368.033 317.415 368.06C317.388 368.088 317.361 368.115 317.34 368.159C316.616 369.165 315.876 370.179 315.123 371.201L299.974 338.966C299.183 337.485 295.221 330.488 287.896 325.834ZM276.692 418.169C272.881 422.563 269.157 426.823 265.619 430.87C254.975 443.045 246.017 453.292 241.464 459.441C241.01 460.036 239.906 461.295 238.054 462.079C233.514 464.149 229.069 461.107 219.821 454.779C217.668 453.305 215.255 451.654 212.519 449.847C210.46 448.498 208.589 447.304 206.901 446.226C198.483 440.854 194.608 438.381 194.584 433.97C194.579 431.082 196.176 428.812 196.911 427.863C207.319 414.263 218.008 400.725 228.708 387.484C242.931 387.058 254.877 386.368 258.574 386.143C260.525 389.408 262.669 393.014 264.932 396.84C268.39 402.687 272.486 410.188 276.692 418.169Z" fill="#444444"/>
<path fill-rule="evenodd" clip-rule="evenodd" d="M209.122 222.206L226.502 222.451C226.6 222.451 226.698 222.451 226.796 222.5C230.37 222.598 237.371 223.283 243.98 227.834C244.959 228.52 246.428 229.596 247.946 231.163C249.267 232.484 253.135 237.036 256.269 249.222C257.395 253.529 260.479 262.877 262.192 267.722C262.942 269.886 266.383 280.104 265.985 285.269C266.112 287.396 264.256 289.44 262.3 289.682C262.3 289.682 250.27 290.862 243.339 291.595C243.53 296.038 243.724 300.866 243.92 306.11C243.92 306.11 245.116 317.751 239.68 322.623C239.082 323.187 154.555 321.29 154.283 319.7C154.229 319.546 154.174 319.341 154.174 319.187C152.974 312.239 153.226 301.126 155.369 287.876L142.088 286.469C141.224 286.383 140.465 286.073 139.91 285.631C139.132 285.608 138.704 285.6 138.704 285.6C138.704 285.6 138.811 285.082 138.99 284.222C138.948 284.008 138.942 283.787 138.978 283.563C139.029 283.299 139.133 283.051 139.282 282.824C140.222 278.343 142.043 269.827 142.685 267.972C144.399 263.126 147.483 253.779 148.609 249.472C151.742 237.285 155.61 232.734 156.932 231.412C158.45 229.846 159.919 228.769 160.898 228.084C167.507 223.532 174.508 222.847 178.082 222.749C178.18 222.7 178.278 222.7 178.376 222.7L191.998 222.509C196.935 221.878 201.939 222.227 206.79 222.565L206.902 222.573C207.225 222.597 207.555 222.622 207.892 222.648C207.678 222.426 207.56 222.299 207.588 222.23C207.626 222.136 207.933 222.151 208.634 222.184C208.779 222.191 208.941 222.199 209.122 222.206Z" fill="#FFCB3D"/>
<path fill-rule="evenodd" clip-rule="evenodd" d="M210.449 232.949L202.869 228.422L197.626 233.943C198.016 234.73 198.613 235.387 199.337 235.853L200.087 286.779C200.091 287.063 200.216 287.332 200.429 287.518L207.554 293.735C207.965 294.094 208.589 294.057 208.954 293.651L215.414 286.475C215.609 286.258 215.7 285.966 215.662 285.676L208.998 235.01C209.653 234.466 210.156 233.753 210.449 232.949Z" fill="#DE3190"/>
<path opacity="0.2" d="M202.002 220.097C204.798 220.594 215.112 220.711 215.406 224.071C215.7 227.431 215.089 235.719 215.089 235.719L202.869 228.422L193.887 237.879C193.887 237.879 186.002 225.289 191.368 222.159C196.733 219.028 199.205 219.6 202.002 220.097Z" fill="#8C2A00"/>
<path fill-rule="evenodd" clip-rule="evenodd" d="M223.583 294.085L224.482 299.332C230.586 300.723 235.686 301.919 238.907 302.681C240.253 302.699 241.683 302.834 243.139 303.05C243.267 303.068 243.394 303.086 243.522 303.105L243.522 303.108C251.625 304.384 260.418 308.058 260.418 308.058C260.418 308.058 261.673 308.66 263.34 309.764L263.334 309.72C266.881 311.978 272.202 316.307 271.969 321.852L271.553 321.849C271.553 321.85 271.553 321.851 271.553 321.852L239.314 321.852H222.396C221.302 324.051 219.934 325.475 218.447 325.895C217.985 326.084 215.409 326.685 212.231 326.504C212.181 326.498 212.146 326.495 212.103 326.491C211.887 326.474 211.472 326.44 207.809 325.818C206.111 325.55 204.768 325.312 203.723 325.067C201.852 324.682 200.846 324.379 200.309 324.184C199.945 324.106 199.83 324.028 199.83 324.028C199.242 323.291 198.668 322.565 198.11 321.852H194.427L194.369 322.045C194.369 322.045 194.261 321.976 194.068 321.852H156.615C156.536 321.829 156.457 321.806 156.379 321.782H156.219C138.676 316.654 137.162 298.33 139.043 283.68C139.195 283.684 139.37 283.689 139.568 283.695C139.594 283.715 139.62 283.736 139.647 283.756C139.745 283.758 139.851 283.761 139.964 283.765C140.397 284.11 140.955 284.375 141.59 284.515C141.641 284.522 141.694 284.528 141.746 284.534L172.613 287.803L172.61 287.831L173.008 287.873L172.905 288.843C174.922 289.155 177.092 289.518 179.376 289.923C180.548 290.129 181.751 290.347 182.98 290.574C183.054 290.514 183.121 290.461 183.181 290.415C185.444 288.579 187.595 288.182 191.122 287.532L191.123 287.532C191.491 287.465 191.874 287.394 192.274 287.319L191.694 283.677L200.68 285.356C201.861 285.022 202.718 284.75 203.148 284.614L203.15 284.613C203.226 284.589 203.289 284.569 203.338 284.554C204.495 284.196 206.136 283.866 207.985 283.746C211.447 283.465 215.907 283.938 219.531 287.094C220.114 287.529 220.62 288.079 221.154 288.773C222.413 290.373 223.258 292.154 223.583 294.085Z" fill="#DB9E75"/>
<path opacity="0.2" fill-rule="evenodd" clip-rule="evenodd" d="M172.694 288.26L141.827 284.99C140.963 284.904 140.203 284.594 139.649 284.151C139.451 284.145 139.276 284.14 139.124 284.136C137.242 298.786 138.757 317.111 156.3 322.238H238.999L239.034 322.044L271.654 322.238C272.002 313.951 259.944 308.38 259.944 308.38C259.944 308.38 247.623 303.168 238.826 303.123C227.679 300.483 192.416 292.269 172.59 289.238L172.694 288.26Z" fill="#8C2A00"/>
<path fill-rule="evenodd" clip-rule="evenodd" d="M178.104 260.641C175.248 271.941 172.219 284.196 171.442 287.906C171.358 288.303 171.613 288.692 172.01 288.775C172.407 288.858 172.796 288.604 172.879 288.207C173.651 284.527 176.681 272.268 179.528 261.001C179.627 260.608 179.389 260.209 178.996 260.109C178.603 260.01 178.203 260.248 178.104 260.641ZM239.07 263.166C240.454 274.738 242.018 287.265 242.621 291.007C242.686 291.407 243.063 291.679 243.463 291.615C243.863 291.55 244.136 291.173 244.071 290.773C243.472 287.061 241.908 274.53 240.529 262.991C240.48 262.588 240.115 262.301 239.712 262.349C239.31 262.398 239.022 262.763 239.07 263.166Z" fill="#482D1F"/>
<path d="M209.521 214.91L202.066 213.222L210.195 219.215L209.521 214.91Z" fill="#482D1F"/>
<path fill-rule="evenodd" clip-rule="evenodd" d="M220.665 191.909C220.106 192.117 219.825 192.72 219.937 193.297C220.144 194.104 220.549 195.421 221.124 195.808C222.081 196.37 222.671 193.763 221.756 192.395C221.395 191.817 221.04 191.786 220.665 191.909ZM212.206 193.552C211.629 193.664 211.242 194.238 211.306 194.824C211.417 195.65 211.679 196.995 212.271 197.479C213.151 198.155 214.048 195.588 213.269 194.144C212.955 193.556 212.591 193.478 212.206 193.552Z" fill="#482D1F"/>
<path d="M217.171 203.955C216.816 203.925 215.953 203.843 215.706 203.343C215.687 203.247 215.611 203.112 215.64 203.006C215.767 202.633 216.381 202.713 217.256 202.593C218.812 202.39 220.034 202.003 220.034 202.003C220.034 202.003 219.884 203.029 219.7 203.364C219.311 204.188 217.68 204.006 217.171 203.955Z" fill="#482D1F"/>
<path fill-rule="evenodd" clip-rule="evenodd" d="M219.614 199.934C220.144 199.736 220.461 199.122 220.265 198.598L218.556 193.63L218.562 193.664L218.545 193.598L218.556 193.63L218.011 190.829C217.96 190.564 217.703 190.39 217.437 190.442C217.172 190.494 216.999 190.751 217.05 191.016L217.601 193.85L217.619 193.916L219.343 198.929C219.346 198.936 219.323 198.982 219.315 198.998C219.314 199.001 219.313 199.003 219.313 199.004L219.159 199.046C218.383 199.26 217.904 199.376 217.061 199.539C216.796 199.591 216.622 199.848 216.674 200.113C216.725 200.379 216.982 200.552 217.248 200.5C218.118 200.331 218.621 200.209 219.419 199.989C219.496 199.968 219.496 199.968 219.613 199.934L219.614 199.934Z" fill="#482D1F"/>
<path d="M187.912 195.608C187.966 197.059 188.517 198.542 189.396 199.65C190.475 201.052 191.733 201.686 193.272 202.064C193.535 202.128 193.696 202.393 193.631 202.656C193.567 202.918 193.302 203.079 193.039 203.014C192.362 202.849 191.816 202.668 191.159 202.337C190.192 201.849 189.329 201.169 188.624 200.252C187.621 198.987 186.995 197.304 186.934 195.644C186.924 195.374 187.135 195.147 187.405 195.137C187.675 195.127 187.902 195.338 187.912 195.608Z" fill="#482D1F"/>
<path fill-rule="evenodd" clip-rule="evenodd" d="M198.391 191.179L223.868 184.299C223.868 184.299 223.026 176.007 215.464 173.305C214.102 172.819 210.43 172.102 207.233 172.517C202.671 173.108 198.272 174.313 196.581 174.776L196.581 174.776C196.443 174.814 196.323 174.846 196.223 174.874C195.583 175.057 194.678 175.196 193.939 175.31C193.423 175.39 192.988 175.457 192.782 175.518C187.339 176.037 183.215 178.45 181.802 179.711C181.272 180.163 180.037 181.3 179.173 183.213C176.465 189.024 178.563 195.048 179.268 196.407C179.762 197.358 180.445 197.923 180.445 197.923C182.545 197.406 185.272 196.427 187.886 195.395C187.894 194.521 188.074 193.635 188.466 192.781C189.583 190.32 192.233 188.559 194.689 188.879C195.963 189.045 196.964 189.772 197.203 189.946C197.223 189.961 197.238 189.972 197.247 189.978C197.705 190.37 198.084 190.785 198.391 191.179ZM223.022 189.157C223.484 188.968 223.507 188.315 223.105 188.044C222.598 187.744 221.754 187.509 220.793 187.696C218.823 188.079 216.96 189.787 219.283 189.934C220.655 190.066 222.156 189.575 223.022 189.157ZM213.222 190.314C213.672 190.575 213.65 191.228 213.188 191.417C212.264 191.796 210.83 192.374 209.352 192.212C207.039 192.114 208.892 190.357 210.862 189.975C211.871 189.778 212.715 190.013 213.222 190.314Z" fill="#482D1F"/>
<path fill-rule="evenodd" clip-rule="evenodd" d="M433.146 321.362V496.328C433.146 498.221 434.68 499.755 436.573 499.755C438.466 499.755 440 498.221 440 496.328V318.182C440 316.534 438.836 315.157 437.285 314.829C436.846 314.625 436.356 314.51 435.84 314.51H144.535C142.643 314.51 141.109 316.044 141.109 317.936C141.109 319.829 142.643 321.362 144.535 321.362H433.146Z" fill="#D8DEED"/>
<rect width="93.0208" height="14.1931" rx="7.09656" transform="matrix(-1 0 0 1 401.812 300.807)" fill="#474961"/>
<rect width="93.0208" height="14.1931" rx="7.09656" transform="matrix(-1 0 0 1 406.219 272.42)" fill="#474961"/>
<rect width="93.0208" height="14.1931" rx="7.09656" transform="matrix(-1 0 0 1 391.531 286.614)" fill="#DE3190"/>
<rect width="93.0208" height="14.1931" rx="7.09656" transform="matrix(-1 0 0 1 398.875 258.227)" fill="#DE3190"/>
</svg>
