<svg width="90" height="27" viewBox="0 0 90 27" fill="none" xmlns="http://www.w3.org/2000/svg">
<path d="M6.82 23.232C7.432 23.1187 8.70133 22.858 10.628 22.45L13.246 21.906C13.5407 22.2007 13.79 22.4613 13.994 22.688C14.198 22.9147 14.3 23.1073 14.3 23.266C14.3 23.4473 14.2093 23.6287 14.028 23.81C13.8467 23.9913 13.484 24.286 12.94 24.694C12.872 24.7393 12.7927 24.8187 12.702 24.932C12.634 25.0453 12.5547 25.1133 12.464 25.136L11.546 25.374C10.7753 25.6007 10.084 25.7707 9.472 25.884C8.88267 26.02 8.282 26.088 7.67 26.088C5.494 26.088 3.71467 25.442 2.332 24.15C1.81067 23.674 1.40267 23.198 1.108 22.722C0.836 22.2233 0.7 21.6907 0.7 21.124C0.7 20.8747 0.711333 20.6933 0.734 20.58C1.09667 18.336 1.50467 16.432 1.958 14.868C2.434 13.1453 3.29533 10.2213 4.542 6.096C4.814 5.12133 5.24467 3.65933 5.834 1.71C5.99267 1.18867 6.208 0.826 6.48 0.622C6.77467 0.418 7.194 0.338666 7.738 0.383999C7.85133 0.383999 7.95333 0.395332 8.044 0.417998C8.15733 0.440665 8.27067 0.451998 8.384 0.451998C9.78933 0.565332 10.492 1.24533 10.492 2.492C10.492 2.80933 10.4467 3.138 10.356 3.478C10.1747 4.20333 9.83467 5.178 9.336 6.402C7.5 11.0713 6.08333 15.5707 5.086 19.9C4.95 20.444 4.882 21.0107 4.882 21.6C4.882 22.7107 5.36933 23.266 6.344 23.266C6.548 23.266 6.70667 23.2547 6.82 23.232ZM19.408 7.898C20.292 6.42467 21.6633 5.13267 23.522 4.022C24.9953 3.138 26.7066 2.696 28.656 2.696C30.0386 2.696 31.376 2.934 32.668 3.41C33.96 3.86333 35.0253 4.50933 35.864 5.348C36.1586 5.64267 36.476 5.926 36.816 6.198C37.3373 6.65133 37.6433 6.93467 37.734 7.048C38.8673 8.24933 39.434 9.57533 39.434 11.026C39.434 12.1593 39.0713 13.3153 38.346 14.494C37.394 16.058 36.408 17.4293 35.388 18.608C34.368 19.7867 33.2233 20.7953 31.954 21.634C29.8006 23.062 27.738 23.776 25.766 23.776C25.1766 23.776 24.5873 23.708 23.998 23.572C22.026 23.1413 20.428 22.2233 19.204 20.818C17.98 19.39 17.368 17.7693 17.368 15.956C17.368 14.5733 17.7533 13.1907 18.524 11.808C18.5693 11.6947 18.66 11.5813 18.796 11.468C18.9546 11.3547 19.0793 11.264 19.17 11.196L19.952 11.57L20.7 11.944C21.4026 12.3293 21.856 12.6467 22.06 12.896C22.2866 13.1453 22.4 13.4967 22.4 13.95C22.4 14.2673 22.366 14.698 22.298 15.242C22.2753 15.446 22.264 15.7407 22.264 16.126C22.264 16.9647 22.366 17.9733 22.57 19.152C22.6153 19.492 22.7513 19.7527 22.978 19.934C23.2273 20.1153 23.5333 20.206 23.896 20.206C24.0773 20.206 24.2246 20.1947 24.338 20.172C25.4033 19.968 26.31 19.73 27.058 19.458C27.8286 19.186 28.52 18.778 29.132 18.234C30.2653 17.2593 31.2513 16.3187 32.09 15.412C32.9286 14.5053 33.6653 13.5307 34.3 12.488C34.7306 11.7627 34.946 11.06 34.946 10.38C34.946 9.81333 34.8213 9.258 34.572 8.714C34.3226 8.17 33.96 7.558 33.484 6.878C32.6906 5.79 31.6593 5.246 30.39 5.246C29.9366 5.246 29.472 5.314 28.996 5.45C28.8373 5.49533 28.112 5.73333 26.82 6.164C26.684 6.20933 26.5366 6.25467 26.378 6.3C26.242 6.34533 26.0946 6.39067 25.936 6.436L22.06 7.558C21.5613 7.71667 20.7906 7.932 19.748 8.204L19.408 7.898ZM56.5875 18.812C56.4742 18.812 56.3268 18.8007 56.1455 18.778C55.9642 18.7553 55.8055 18.7553 55.6695 18.778C54.8082 18.914 54.1735 19.0273 53.7655 19.118C52.5188 19.3447 51.6122 19.492 51.0455 19.56L50.7055 19.594C49.8895 19.594 49.1415 19.1747 48.4615 18.336C48.1442 17.9507 47.9855 17.5767 47.9855 17.214C47.9855 16.8513 48.1328 16.5113 48.4275 16.194L60.9735 14.698C61.1095 14.8793 61.3362 15.1287 61.6535 15.446C62.1748 15.9673 62.5488 16.4207 62.7755 16.806C63.0248 17.1913 63.1155 17.656 63.0475 18.2C62.9115 18.3587 62.7188 18.5627 62.4695 18.812C62.2428 19.0387 62.0728 19.254 61.9595 19.458C61.2795 20.5687 60.4408 21.5207 59.4435 22.314C58.4462 23.0847 57.2788 23.7647 55.9415 24.354L55.2955 24.626C54.7062 24.898 54.2188 25.0907 53.8335 25.204C53.4708 25.34 53.0742 25.442 52.6435 25.51C52.1448 25.578 51.6575 25.612 51.1815 25.612C48.8468 25.612 46.6142 24.7053 44.4835 22.892C43.6448 22.1893 43.0442 21.396 42.6815 20.512C42.3188 19.628 42.1375 18.642 42.1375 17.554C42.1375 15.4687 42.6475 13.4173 43.6675 11.4C44.6875 9.38267 46.0928 7.66 47.8835 6.232C49.6742 4.78133 51.6462 3.818 53.7995 3.342C54.4115 3.22867 54.9668 3.172 55.4655 3.172C57.0295 3.172 58.3442 3.70467 59.4095 4.77C59.7948 5.15533 59.9875 5.54067 59.9875 5.926C59.9875 6.17533 59.9082 6.45867 59.7495 6.776C59.6588 6.776 59.5228 6.79867 59.3415 6.844C59.1828 6.86667 59.0582 6.86667 58.9675 6.844C58.2875 6.54933 57.6075 6.402 56.9275 6.402C55.7715 6.402 54.4342 6.844 52.9155 7.728C48.5635 10.244 46.1382 13.6667 45.6395 17.996C45.6168 18.1093 45.6055 18.2793 45.6055 18.506C45.6055 19.526 45.9228 20.4327 46.5575 21.226C47.2148 21.9967 48.0535 22.4273 49.0735 22.518L49.6175 22.552C50.4788 22.552 51.3062 22.4047 52.0995 22.11C52.8928 21.7927 53.5842 21.4413 54.1735 21.056C54.7628 20.648 55.6015 20.0473 56.6895 19.254L56.5875 18.812ZM88.9842 12.828C89.0522 14.2107 88.7462 15.6727 88.0662 17.214C87.4089 18.7553 86.4795 20.1493 85.2782 21.396C84.0995 22.6427 82.7962 23.538 81.3682 24.082C79.9402 24.626 78.5349 24.898 77.1522 24.898C75.7242 24.898 74.3642 24.6147 73.0722 24.048C71.8029 23.4587 70.6355 22.5973 69.5702 21.464C68.8675 20.7387 68.2782 19.8433 67.8022 18.778C67.3262 17.69 66.9749 16.568 66.7482 15.412C66.5442 14.3467 66.4422 13.304 66.4422 12.284C66.4422 9.94933 66.9749 7.88667 68.0402 6.096C68.6975 4.98533 69.4455 4.13533 70.2842 3.546C71.1455 2.934 72.1542 2.628 73.3102 2.628C73.4915 2.628 73.8089 2.65067 74.2622 2.696C75.2369 2.832 76.4382 2.92267 77.8662 2.968C79.2715 3.01333 80.3142 3.08133 80.9942 3.172C82.2409 3.308 83.3402 3.75 84.2922 4.498C85.2669 5.246 86.1622 6.20933 86.9782 7.388C87.3182 7.88667 87.6129 8.408 87.8622 8.952C88.1342 9.496 88.4289 10.1647 88.7462 10.958L89.4602 12.624L88.9842 12.828ZM77.8662 21.09C79.1129 20.6593 80.2462 19.968 81.2662 19.016C82.2862 18.064 83.0795 16.9533 83.6462 15.684C84.2129 14.4147 84.4622 13.1227 84.3942 11.808C84.2582 9.65467 83.9749 8.068 83.5442 7.048C83.1135 6.028 82.4222 5.314 81.4702 4.906C80.5409 4.498 79.1129 4.226 77.1862 4.09C76.9822 4.06733 76.7669 4.056 76.5402 4.056L74.2962 6.47C73.6615 7.19533 73.2309 7.77333 73.0042 8.204C71.9842 10.0853 71.4742 12.3407 71.4742 14.97C71.4742 15.854 71.4969 16.5227 71.5422 16.976C71.6329 18.404 72.0635 19.5147 72.8342 20.308C73.6049 21.0787 74.5909 21.464 75.7922 21.464C76.3815 21.464 77.0729 21.3393 77.8662 21.09Z" fill="white"/>
</svg>
