<svg width="99" height="27" viewBox="0 0 99 27" fill="none" xmlns="http://www.w3.org/2000/svg">
<path d="M12.0321 8.16788C12.0321 9.55988 11.5521 10.7199 10.5921 11.6479C9.64814 12.5599 8.20014 13.0159 6.24814 13.0159H3.03215V19.9999H0.848145V3.27188H6.24814C8.13614 3.27188 9.56814 3.72788 10.5441 4.63988C11.5361 5.55188 12.0321 6.72788 12.0321 8.16788ZM6.24814 11.2159C7.46414 11.2159 8.36014 10.9519 8.93614 10.4239C9.51214 9.89588 9.80014 9.14388 9.80014 8.16788C9.80014 6.10388 8.61614 5.07188 6.24814 5.07188H3.03215V11.2159H6.24814Z" fill="#2F281E"/>
<path d="M16.9306 8.98388C17.3146 8.23188 17.8586 7.64788 18.5626 7.23188C19.2826 6.81588 20.1546 6.60788 21.1786 6.60788V8.86388H20.6026C18.1546 8.86388 16.9306 10.1919 16.9306 12.8479V19.9999H14.7466V6.84788H16.9306V8.98388Z" fill="#2F281E"/>
<path d="M29.4357 20.2159C28.2037 20.2159 27.0837 19.9359 26.0757 19.3759C25.0837 18.8159 24.2997 18.0239 23.7237 16.9999C23.1637 15.9599 22.8837 14.7599 22.8837 13.3999C22.8837 12.0559 23.1717 10.8719 23.7477 9.84788C24.3397 8.80788 25.1397 8.01588 26.1477 7.47188C27.1557 6.91188 28.2837 6.63188 29.5317 6.63188C30.7797 6.63188 31.9077 6.91188 32.9157 7.47188C33.9237 8.01588 34.7157 8.79988 35.2917 9.82388C35.8837 10.8479 36.1797 12.0399 36.1797 13.3999C36.1797 14.7599 35.8757 15.9599 35.2677 16.9999C34.6757 18.0239 33.8677 18.8159 32.8437 19.3759C31.8197 19.9359 30.6837 20.2159 29.4357 20.2159ZM29.4357 18.2959C30.2197 18.2959 30.9557 18.1119 31.6437 17.7439C32.3317 17.3759 32.8837 16.8239 33.2997 16.0879C33.7317 15.3519 33.9477 14.4559 33.9477 13.3999C33.9477 12.3439 33.7397 11.4479 33.3237 10.7119C32.9077 9.97588 32.3637 9.43188 31.6917 9.07988C31.0197 8.71188 30.2917 8.52788 29.5077 8.52788C28.7077 8.52788 27.9717 8.71188 27.2997 9.07988C26.6437 9.43188 26.1157 9.97588 25.7157 10.7119C25.3157 11.4479 25.1157 12.3439 25.1157 13.3999C25.1157 14.4719 25.3077 15.3759 25.6917 16.1119C26.0917 16.8479 26.6197 17.3999 27.2757 17.7679C27.9317 18.1199 28.6517 18.2959 29.4357 18.2959Z" fill="#2F281E"/>
<path d="M46.1553 16.5199V19.9999H44.0673C42.5793 19.9999 41.4193 19.6399 40.5873 18.9199C39.7553 18.1839 39.3393 16.9919 39.3393 15.3439V10.0159H37.7073V6.60788H39.3393V3.34388H43.4433V6.60788H46.1313V10.0159H43.4433V15.3919C43.4433 15.7919 43.5393 16.0799 43.7313 16.2559C43.9233 16.4319 44.2433 16.5199 44.6913 16.5199H46.1553Z" fill="#2F281E"/>
<path d="M50.5053 5.21588C49.7853 5.21588 49.1933 5.00788 48.7293 4.59188C48.2813 4.15988 48.0573 3.63188 48.0573 3.00788C48.0573 2.36788 48.2813 1.83988 48.7293 1.42388C49.1933 0.991879 49.7853 0.775879 50.5053 0.775879C51.2093 0.775879 51.7853 0.991879 52.2333 1.42388C52.6973 1.83988 52.9293 2.36788 52.9293 3.00788C52.9293 3.63188 52.6973 4.15988 52.2333 4.59188C51.7853 5.00788 51.2093 5.21588 50.5053 5.21588ZM52.5453 6.60788V19.9999H48.4413V6.60788H52.5453Z" fill="#2F281E"/>
<path d="M59.6234 8.50388C60.0234 7.87988 60.5754 7.37588 61.2794 6.99188C61.9834 6.60788 62.8074 6.41588 63.7514 6.41588C64.8554 6.41588 65.8554 6.69588 66.7514 7.25588C67.6474 7.81588 68.3514 8.61588 68.8634 9.65588C69.3914 10.6959 69.6554 11.9039 69.6554 13.2799C69.6554 14.6559 69.3914 15.8719 68.8634 16.9279C68.3514 17.9679 67.6474 18.7759 66.7514 19.3519C65.8554 19.9119 64.8554 20.1919 63.7514 20.1919C62.8234 20.1919 61.9994 19.9999 61.2794 19.6159C60.5754 19.2319 60.0234 18.7359 59.6234 18.1279V26.3839H55.5194V6.60788H59.6234V8.50388ZM65.4794 13.2799C65.4794 12.2559 65.1914 11.4559 64.6154 10.8799C64.0554 10.2879 63.3594 9.99188 62.5274 9.99188C61.7114 9.99188 61.0154 10.2879 60.4394 10.8799C59.8794 11.4719 59.5994 12.2799 59.5994 13.3039C59.5994 14.3279 59.8794 15.1359 60.4394 15.7279C61.0154 16.3199 61.7114 16.6159 62.5274 16.6159C63.3434 16.6159 64.0394 16.3199 64.6154 15.7279C65.1914 15.1199 65.4794 14.3039 65.4794 13.2799Z" fill="#2F281E"/>
<path d="M77.2565 20.1919C76.0885 20.1919 75.0485 19.9919 74.1365 19.5919C73.2245 19.1919 72.5045 18.6479 71.9765 17.9599C71.4485 17.2559 71.1525 16.4719 71.0885 15.6079H75.1445C75.1925 16.0719 75.4085 16.4479 75.7925 16.7359C76.1765 17.0239 76.6485 17.1679 77.2085 17.1679C77.7205 17.1679 78.1125 17.0719 78.3845 16.8799C78.6725 16.6719 78.8165 16.4079 78.8165 16.0879C78.8165 15.7039 78.6165 15.4239 78.2165 15.2479C77.8165 15.0559 77.1685 14.8479 76.2725 14.6239C75.3125 14.3999 74.5125 14.1679 73.8725 13.9279C73.2325 13.6719 72.6805 13.2799 72.2165 12.7519C71.7525 12.2079 71.5205 11.4799 71.5205 10.5679C71.5205 9.79988 71.7285 9.10388 72.1445 8.47988C72.5765 7.83988 73.2005 7.33588 74.0165 6.96788C74.8485 6.59988 75.8325 6.41588 76.9685 6.41588C78.6485 6.41588 79.9685 6.83188 80.9285 7.66388C81.9045 8.49588 82.4645 9.59988 82.6085 10.9759H78.8165C78.7525 10.5119 78.5445 10.1439 78.1925 9.87188C77.8565 9.59988 77.4085 9.46388 76.8485 9.46388C76.3685 9.46388 76.0005 9.55988 75.7445 9.75188C75.4885 9.92788 75.3605 10.1759 75.3605 10.4959C75.3605 10.8799 75.5605 11.1679 75.9605 11.3599C76.3765 11.5519 77.0165 11.7439 77.8805 11.9359C78.8725 12.1919 79.6805 12.4479 80.3045 12.7039C80.9285 12.9439 81.4725 13.3439 81.9365 13.9039C82.4165 14.4479 82.6645 15.1839 82.6805 16.1119C82.6805 16.8959 82.4565 17.5999 82.0085 18.2239C81.5765 18.8319 80.9445 19.3119 80.1125 19.6639C79.2965 20.0159 78.3445 20.1919 77.2565 20.1919Z" fill="#2F281E"/>
<path d="M89 6H99V16H89V6Z" fill="#FF4F4F"/>
</svg>
